# xmcd
#
# Track frame offsets: 
#        150
#        20364
#        40287
#        65157
#        89661
#        115785
#        139148
#        161695
#        183396
#        204760
#
# Disc length: 3096 seconds
#
# Revision: 7
# Processed by: cddbd v1.5.2PL0 Copyright (c) Steve Scherf et al.
# Submitted via: ExactAudioCopy v1.0b6
#
DISCID=890c160a
DTITLE=浜田省吾 - Sand Castle SACD-HYBRID ESCL-10001
DYEAR=2003
DGENRE=JPop
TTITLE0=君に会うまでは
TTITLE1=君の微笑
TTITLE2=散歩道
TTITLE3=いつわりの日々
TTITLE4=愛という名のもとに
TTITLE5=朝のシルエット
TTITLE6=丘の上の愛
TTITLE7=片想い
TTITLE8=陽のあたる場所
TTITLE9=愛しい人へ
EXTD=
EXTT0=
EXTT1=
EXTT2=
EXTT3=
EXTT4=
EXTT5=
EXTT6=
EXTT7=
EXTT8=
EXTT9=
PLAYORDER=
